HIERARCHY
ROOT joint_Root
{
	OFFSET 0.0 0.0 0.0
	CHANNELS 6 Xposition Yposition Zposition Zrotation Xrotation Yrotation 
	JOINT Hips
	{
		OFFSET -0.726466 93.3139 -2.00062
		CHANNELS 6 Xposition Yposition Zposition Zrotation Xrotation Yrotation 
		JOINT Spine
		{
			OFFSET 15.7357 0.0 0.0
			CHANNELS 6 Xposition Yposition Zposition Zrotation Xrotation Yrotation 
			JOINT Chest
			{
				OFFSET 8.98455 -0.406207 0.0
				CHANNELS 6 Xposition Yposition Zposition Zrotation Xrotation Yrotation 
				JOINT Neck
				{
					OFFSET 16.3773 0.0 0.0
					CHANNELS 6 Xposition Yposition Zposition Zrotation Xrotation Yrotation 
					JOINT Head
					{
						OFFSET 6.45672 0.0 0.0
						CHANNELS 6 Xposition Yposition Zposition Zrotation Xrotation Yrotation 
						End Site
						{
							OFFSET 0.0 0.0 0.0
						}
					}
				}
				JOINT Shoulder_L
				{
					OFFSET 12.9942 -0.242716 4.98039
					CHANNELS 6 Xposition Yposition Zposition Zrotation Xrotation Yrotation 
					JOINT UpperArm_L
					{
						OFFSET 5.34809 0.0 0.0
						CHANNELS 6 Xposition Yposition Zposition Zrotation Xrotation Yrotation 
						JOINT LowerArm_L
						{
							OFFSET 24.3286 1.87007e-05 0.0
							CHANNELS 6 Xposition Yposition Zposition Zrotation Xrotation Yrotation 
							JOINT Hand_L
							{
								OFFSET 22.2916 0.0 0.0
								CHANNELS 6 Xposition Yposition Zposition Zrotation Xrotation Yrotation 
								End Site
								{
									OFFSET 0.0 0.0 0.0
								}
							}
						}
					}
				}
				JOINT Shoulder_R
				{
					OFFSET 12.9945 -0.242716 -4.98039
					CHANNELS 6 Xposition Yposition Zposition Zrotation Xrotation Yrotation 
					JOINT UpperArm_R
					{
						OFFSET -5.34813 0.0 0.0
						CHANNELS 6 Xposition Yposition Zposition Zrotation Xrotation Yrotation 
						JOINT LowerArm_R
						{
							OFFSET -24.3289 0.000322201 0.0
							CHANNELS 6 Xposition Yposition Zposition Zrotation Xrotation Yrotation 
							JOINT Hand_R
							{
								OFFSET -22.2915 -0.000108084 0.0
								CHANNELS 6 Xposition Yposition Zposition Zrotation Xrotation Yrotation 
								End Site
								{
									OFFSET 0.0 0.0 0.0
								}
							}
						}
					}
				}
			}
		}
		JOINT UpperLeg_L
		{
			OFFSET -2.19248 -6.46944 0.0
			CHANNELS 6 Xposition Yposition Zposition Zrotation Xrotation Yrotation 
			JOINT LowerLeg_L
			{
				OFFSET 39.0811 0.0 -1.23785e-05
				CHANNELS 6 Xposition Yposition Zposition Zrotation Xrotation Yrotation 
				JOINT Foot_L
				{
					OFFSET 40.9854 0.0 -1.26872e-05
					CHANNELS 6 Xposition Yposition Zposition Zrotation Xrotation Yrotation 
					JOINT Toes_L
					{
						OFFSET 11.7543 0.0 0.0
						CHANNELS 6 Xposition Yposition Zposition Zrotation Xrotation Yrotation 
						End Site
						{
							OFFSET 0.0 0.0 0.0
						}
					}
				}
			}
		}
		JOINT UpperLeg_R
		{
			OFFSET -2.19251 6.46944 0.0
			CHANNELS 6 Xposition Yposition Zposition Zrotation Xrotation Yrotation 
			JOINT LowerLeg_R
			{
				OFFSET -39.0811 -0.00228153 -0.0401928
				CHANNELS 6 Xposition Yposition Zposition Zrotation Xrotation Yrotation 
				JOINT Foot_R
				{
					OFFSET -40.9854 0.0 0.0
					CHANNELS 6 Xposition Yposition Zposition Zrotation Xrotation Yrotation 
					JOINT Toes_R
					{
						OFFSET -11.7543 0.0 0.0
						CHANNELS 6 Xposition Yposition Zposition Zrotation Xrotation Yrotation 
						End Site
						{
							OFFSET 0.0 0.0 0.0
						}
					}
				}
			}
		}
	}
}
MOTION
Frames:	6
Frame Time:	0.0333333
0.000000 0.000000 0.000000 0.000000 0.000000 -0.000000 -0.181369 93.036600 -0.322917 88.991800 -2.718660 1.037820 15.735700 0.000005 -0.000001 100.840000 87.894400 -100.770000 8.984550 -0.406207 -0.000000 -3.630710 0.784584 0.164242 16.377300 -0.000001 -0.000001 3.908640 -2.459630 3.415990 6.456720 -0.000001 -0.000000 9.511240 -2.123800 -3.605800 12.994200 -0.242716 4.980390 -87.584900 -7.871230 -72.882200 5.348090 -0.000007 -0.000001 -80.378600 -31.900100 -87.746600 24.328600 0.000019 0.000005 19.321200 0.456032 -88.699600 22.291600 -0.000001 0.000005 18.715500 5.580190 -10.221900 12.994500 -0.242716 -4.980390 90.342200 -1.190690 -73.962500 -5.348130 -0.000001 -0.000004 -70.907200 -32.098000 -95.041200 -24.328900 0.000322 -0.000009 21.073500 3.303870 -81.494800 -22.291500 -0.000108 -0.000004 23.181000 5.397960 -2.871100 -2.192480 -6.469440 -0.000000 -176.938000 -8.854360 -2.315810 39.081100 -0.000007 -0.000012 -0.053304 0.184993 16.073700 40.985400 -0.000006 -0.000013 -0.023349 4.479350 -62.880000 11.754300 -0.000000 0.000003 -0.000003 -0.000043 -16.579200 -2.192510 6.469440 -0.000001 179.058000 11.321900 179.787000 -39.081100 -0.002282 -0.040193 -0.035402 0.165129 13.201600 -40.985400 0.000008 0.000006 1.668570 7.458820 -62.308000 -11.754300 -0.000006 -0.000006 -0.005790 -0.068919 -19.377800
0.000000 0.000000 0.000000 0.000000 0.000000 -0.000000 -0.191008 93.044200 -0.331938 88.992200 -2.782240 1.004040 15.735700 0.000005 -0.000001 101.234000 87.877100 -101.174000 8.984550 -0.406207 -0.000000 -3.602130 0.820779 0.145947 16.377300 -0.000001 -0.000001 3.879060 -2.432460 3.470470 6.456720 -0.000001 -0.000000 9.532450 -2.109480 -3.515220 12.994200 -0.242716 4.980390 -87.577000 -7.828090 -72.740900 5.348090 -0.000007 -0.000001 -80.150200 -31.869600 -87.811100 24.328600 0.000019 0.000005 19.071900 0.508974 -88.528200 22.291600 -0.000001 0.000005 18.605900 5.577870 -10.098100 12.994500 -0.242716 -4.980390 90.338600 -1.171120 -73.873100 -5.348130 -0.000001 -0.000004 -70.669800 -32.177100 -94.952800 -24.328900 0.000322 -0.000009 21.050200 3.425730 -81.175900 -22.291500 -0.000108 -0.000004 23.046300 5.395810 -2.802130 -2.192480 -6.469440 -0.000000 -176.938000 -8.890010 -2.292530 39.081100 -0.000007 -0.000012 -0.053263 0.185949 15.983600 40.985400 -0.000006 -0.000013 -0.039273 4.439600 -62.842800 11.754300 -0.000000 0.000003 -0.000002 -0.000030 -16.578700 -2.192510 6.469440 -0.000001 179.091000 11.336500 179.752000 -39.081100 -0.002282 -0.040193 -0.033989 0.159543 13.166700 -40.985400 0.000008 0.000006 1.750010 7.457200 -62.285800 -11.754300 -0.000006 -0.000006 -0.005891 -0.069845 -19.415600
0.000000 0.000000 0.000000 0.000000 0.000000 -0.000000 -0.201442 93.045000 -0.342761 88.987100 -2.835050 0.984745 15.735700 0.000005 -0.000001 101.446000 87.855200 -101.391000 8.984550 -0.406207 -0.000000 -3.562270 0.845410 0.135320 16.377300 -0.000001 -0.000001 3.909630 -2.410920 3.478330 6.456720 -0.000001 -0.000000 9.418900 -2.114560 -3.368280 12.994200 -0.242716 4.980390 -87.572100 -7.743810 -72.532600 5.348090 -0.000007 -0.000001 -79.633600 -31.846000 -87.334100 24.328600 0.000019 0.000005 18.681200 0.448024 -88.675300 22.291600 -0.000001 0.000005 18.465100 5.574970 -9.945520 12.994500 -0.242716 -4.980390 90.319000 -1.096220 -73.773200 -5.348130 -0.000001 -0.000004 -69.964200 -32.421300 -94.309900 -24.328900 0.000322 -0.000009 21.270700 3.427600 -81.269900 -22.291500 -0.000108 -0.000004 23.131300 5.388030 -2.552650 -2.192480 -6.469440 -0.000000 -176.937000 -8.848530 -2.318480 39.081100 -0.000007 -0.000012 -0.052471 0.183152 15.986300 40.985400 -0.000006 -0.000013 -0.054035 4.375410 -62.837300 11.754300 -0.000000 0.000003 -0.000002 -0.000028 -16.578600 -2.192510 6.469440 -0.000001 179.099000 11.277000 179.733000 -39.081100 -0.002282 -0.040193 -0.033457 0.157376 13.158100 -40.985400 0.000008 0.000006 1.769950 7.510050 -62.283300 -11.754300 -0.000006 -0.000006 -0.005985 -0.070700 -19.450500
0.000000 0.000000 0.000000 0.000000 0.000000 -0.000000 -0.199679 93.046800 -0.347030 88.986700 -2.865940 0.956615 15.735700 0.000005 -0.000001 101.632000 87.835200 -101.580000 8.984550 -0.406207 -0.000000 -3.525850 0.867353 0.130785 16.377300 -0.000001 -0.000001 3.781750 -2.386060 3.511700 6.456720 -0.000001 -0.000000 9.432250 -2.098110 -3.319540 12.994200 -0.242716 4.980390 -87.607000 -7.521720 -72.294400 5.348090 -0.000007 -0.000001 -78.655700 -31.711900 -85.853500 24.328600 0.000019 0.000005 17.756700 0.130175 -89.594900 22.291600 -0.000001 0.000005 18.332400 5.571410 -9.760800 12.994500 -0.242716 -4.980390 90.275500 -0.932235 -73.533300 -5.348130 -0.000001 -0.000004 -68.718900 -32.527000 -92.698000 -24.328900 0.000322 -0.000009 21.061900 3.018160 -82.216300 -22.291500 -0.000108 -0.000004 23.114500 5.371400 -2.030080 -2.192480 -6.469440 -0.000000 -176.947000 -8.855410 -2.339110 39.081100 -0.000007 -0.000012 -0.052873 0.184742 15.970900 40.985400 -0.000006 -0.000013 -0.059158 4.326700 -62.828400 11.754300 -0.000000 0.000003 -0.000001 -0.000018 -16.578200 -2.192510 6.469440 -0.000001 179.111000 11.252000 179.691000 -39.081100 -0.002282 -0.040193 -0.033161 0.156148 13.155100 -40.985400 0.000008 0.000006 1.763850 7.513160 -62.266700 -11.754300 -0.000006 -0.000006 -0.005824 -0.069224 -19.390300
0.000000 0.000000 0.000000 0.000000 0.000000 -0.000000 -0.206392 93.062500 -0.352833 88.987600 -2.881070 0.890065 15.735700 0.000005 -0.000001 101.819000 87.850200 -101.771000 8.984550 -0.406207 -0.000000 -3.558150 0.875393 0.124448 16.377300 -0.000001 -0.000001 3.656340 -2.356780 3.602830 6.456720 -0.000001 -0.000000 9.279120 -2.061810 -3.356500 12.994200 -0.242716 4.980390 -87.703200 -7.064060 -71.936700 5.348090 -0.000007 -0.000001 -76.736500 -31.117300 -82.695900 24.328600 0.000019 0.000005 14.836500 -0.464145 -91.756900 22.291600 -0.000001 0.000005 18.393200 5.573060 -9.845270 12.994500 -0.242716 -4.980390 90.202600 -0.668344 -73.134900 -5.348130 -0.000001 -0.000004 -66.462500 -32.244800 -89.206400 -24.328900 0.000322 -0.000009 19.743900 1.818670 -84.951200 -22.291500 -0.000108 -0.000004 22.927500 5.334790 -0.923005 -2.192480 -6.469440 -0.000000 -176.953000 -8.868200 -2.339020 39.081100 -0.000007 -0.000012 -0.052279 0.184524 15.818400 40.985400 -0.000006 -0.000013 -0.070887 4.326910 -62.741700 11.754300 -0.000000 0.000003 -0.000002 -0.000031 -16.578700 -2.192510 6.469440 -0.000001 179.150000 11.260600 179.673000 -39.081100 -0.002282 -0.040193 -0.030771 0.147157 13.048400 -40.985400 0.000008 0.000006 1.966210 7.505660 -62.242500 -11.754300 -0.000006 -0.000006 -0.005790 -0.068919 -19.377800
0.000000 0.000000 0.000000 0.000000 0.000000 -0.000000 -0.202738 93.059100 -0.345615 88.982300 -2.908480 0.781221 15.735700 0.000005 -0.000001 101.868000 87.843000 -101.836000 8.984550 -0.406207 -0.000000 -3.544790 0.883578 0.091160 16.377300 -0.000001 -0.000001 3.226140 -2.367890 3.754150 6.456720 -0.000001 -0.000000 9.129540 -1.952000 -3.322980 12.994200 -0.242716 4.980390 -87.831700 -6.547850 -71.632200 5.348090 -0.000007 -0.000001 -73.543800 -30.254800 -77.437600 24.328600 0.000019 0.000005 11.728300 -1.228780 -95.905400 22.291600 -0.000001 0.000005 18.025100 5.567130 -9.542260 12.994500 -0.242716 -4.980390 90.042000 -0.136929 -72.938800 -5.348130 -0.000001 -0.000004 -62.800400 -32.070900 -83.628300 -24.328900 0.000322 -0.000009 17.843900 0.059075 -89.821500 -22.291500 -0.000108 -0.000004 22.027300 5.294720 0.221000 -2.192480 -6.469440 -0.000000 -176.972000 -8.888100 -2.457650 39.081100 -0.000007 -0.000012 -0.051929 0.182859 15.853700 40.985400 -0.000006 -0.000013 -0.065388 4.310180 -62.767700 11.754300 -0.000000 0.000003 -0.000003 -0.000040 -16.579100 -2.192510 6.469440 -0.000001 179.167000 11.274800 179.549000 -39.081100 -0.002282 -0.040193 -0.031503 0.150095 13.066800 -40.985400 0.000008 0.000006 1.905590 7.539610 -62.237600 -11.754300 -0.000006 -0.000006 -0.005854 -0.069500 -19.401500
